<svg width="118" height="118" viewBox="0 0 118 118" fill="none" xmlns="http://www.w3.org/2000/svg">
<path d="M52.1167 78.6667C52.1167 72.0292 52.7108 67.2559 53.899 64.3469C55.0872 61.4378 57.607 58.2625 61.4584 54.8208C64.8181 51.8708 67.3789 49.3101 69.1407 47.1385C70.9025 44.967 71.7834 42.4882 71.7834 39.7021C71.7834 36.3424 70.6567 33.5562 68.4032 31.3438C66.1497 29.1312 63.0153 28.025 59.0001 28.025C54.8209 28.025 51.6455 29.2951 49.474 31.8354C47.3025 34.3757 45.766 36.9569 44.8646 39.5792L32.2042 34.1708C33.9251 28.9264 37.0799 24.3785 41.6688 20.5271C46.2577 16.6757 52.0348 14.75 59.0001 14.75C67.6042 14.75 74.2212 17.1469 78.8511 21.9406C83.481 26.7344 85.7959 32.491 85.7959 39.2104C85.7959 43.3076 84.915 46.8108 83.1532 49.7198C81.3914 52.6288 78.6258 55.9271 74.8563 59.6146C70.841 63.466 68.4032 66.3955 67.5428 68.4031C66.6824 70.4108 66.2521 73.8319 66.2521 78.6667H52.1167ZM59.0001 108.167C56.2959 108.167 53.981 107.204 52.0553 105.278C50.1296 103.352 49.1667 101.037 49.1667 98.3333C49.1667 95.6292 50.1296 93.3142 52.0553 91.3885C53.981 89.4628 56.2959 88.5 59.0001 88.5C61.7042 88.5 64.0192 89.4628 65.9449 91.3885C67.8705 93.3142 68.8334 95.6292 68.8334 98.3333C68.8334 101.037 67.8705 103.352 65.9449 105.278C64.0192 107.204 61.7042 108.167 59.0001 108.167Z" fill="#FAB387"/>
</svg>
