<svg width="118" height="118" viewBox="0 0 118 118" fill="none" xmlns="http://www.w3.org/2000/svg">
<path d="M52.1166 81.6167L86.7791 46.9542L79.8958 40.0708L52.1166 67.85L38.1041 53.8375L31.2208 60.7208L52.1166 81.6167ZM59 108.167C52.1986 108.167 45.8069 106.876 39.825 104.295C33.843 101.714 28.6396 98.2104 24.2146 93.7854C19.7896 89.3604 16.2864 84.1569 13.7052 78.175C11.1239 72.1931 9.83331 65.8014 9.83331 59C9.83331 52.1986 11.1239 45.8069 13.7052 39.825C16.2864 33.8431 19.7896 28.6396 24.2146 24.2146C28.6396 19.7896 33.843 16.2865 39.825 13.7052C45.8069 11.124 52.1986 9.83333 59 9.83333C65.8014 9.83333 72.193 11.124 78.175 13.7052C84.1569 16.2865 89.3604 19.7896 93.7854 24.2146C98.2104 28.6396 101.714 33.8431 104.295 39.825C106.876 45.8069 108.167 52.1986 108.167 59C108.167 65.8014 106.876 72.1931 104.295 78.175C101.714 84.1569 98.2104 89.3604 93.7854 93.7854C89.3604 98.2104 84.1569 101.714 78.175 104.295C72.193 106.876 65.8014 108.167 59 108.167ZM59 98.3333C69.9805 98.3333 79.2812 94.5229 86.9021 86.9021C94.5229 79.2812 98.3333 69.9806 98.3333 59C98.3333 48.0194 94.5229 38.7187 86.9021 31.0979C79.2812 23.4771 69.9805 19.6667 59 19.6667C48.0194 19.6667 38.7187 23.4771 31.0979 31.0979C23.4771 38.7187 19.6666 48.0194 19.6666 59C19.6666 69.9806 23.4771 79.2812 31.0979 86.9021C38.7187 94.5229 48.0194 98.3333 59 98.3333Z" fill="#FAB387"/>
</svg>
